<?xml version="1.0" standalone="no"?>
<!DOCTYPE svg PUBLIC "-//W3C//DTD SVG 20010904//EN"
 "http://www.w3.org/TR/2001/REC-SVG-20010904/DTD/svg10.dtd">
<svg version="1.0" xmlns="http://www.w3.org/2000/svg"
 width="150.000000pt" height="150.000000pt" viewBox="0 0 150.000000 150.000000"
 preserveAspectRatio="xMidYMid meet">
<metadata>
Created by potrace 1.11, written by Peter Selinger 2001-2013
</metadata>
<g transform="translate(0.000000,150.000000) scale(0.100000,-0.100000)"
fill="#000000" stroke="none">
<path d="M755 1358 c-7 -18 -34 -50 -59 -71 -46 -38 -64 -83 -28 -70 9 4 22
14 29 24 7 9 22 19 34 22 20 5 20 3 16 -46 -3 -29 -9 -68 -13 -87 -6 -32 -6
-34 10 -21 25 21 30 7 11 -36 -28 -64 -30 -66 -64 -68 -29 -1 -50 -17 -51 -37
0 -4 14 -5 31 -1 29 5 30 5 19 -14 -7 -11 -22 -24 -33 -29 -25 -11 -61 -58
-56 -73 3 -7 18 -4 42 9 22 12 36 16 32 10 -10 -17 -13 -70 -3 -76 4 -3 17 15
28 40 23 47 50 68 50 38 0 -10 -11 -34 -25 -55 -14 -20 -23 -37 -20 -37 3 0 1
-8 -4 -17 -7 -15 -22 -18 -80 -18 -48 1 -72 -3 -75 -12 -6 -16 0 -19 52 -28
41 -7 50 -25 11 -25 -11 0 -19 -7 -19 -16 0 -13 -6 -14 -32 -8 -47 11 -72 11
-76 -1 -2 -5 10 -14 27 -19 32 -9 44 -29 15 -24 -10 2 -19 -3 -21 -9 -3 -8 5
-13 21 -13 14 0 26 -4 26 -8 0 -7 -72 -32 -106 -38 -33 -5 -54 -17 -48 -26 4
-5 21 -7 40 -3 27 5 33 3 28 -9 -8 -20 11 -29 26 -11 17 21 31 9 24 -21 -5
-17 -2 -24 9 -24 8 0 21 -2 29 -5 9 -4 20 12 33 46 22 56 38 75 34 37 -4 -27
35 -77 46 -59 10 17 25 13 25 -8 0 -10 -7 -22 -16 -25 -9 -3 -14 -13 -11 -20
3 -8 -1 -20 -9 -27 -17 -14 -15 -50 4 -57 7 -2 12 5 12 18 0 23 27 70 41 70 5
0 9 -12 9 -26 0 -35 21 -26 36 17 12 34 18 26 15 -21 -5 -62 -6 -247 -3 -261
4 -19 49 -23 59 -5 4 6 8 78 10 161 2 160 5 201 16 212 8 7 8 6 10 -54 3 -46
13 -65 23 -39 9 24 24 19 24 -9 0 -14 5 -25 10 -25 6 0 10 5 10 12 0 6 7 19
16 29 15 17 17 17 33 1 10 -9 21 -25 24 -34 4 -10 11 -18 16 -18 16 0 18 43 3
67 -13 21 -12 23 13 33 27 10 27 11 10 30 -10 11 -26 20 -37 20 -10 0 -18 5
-18 10 0 6 7 10 15 10 22 0 18 17 -6 23 -12 3 -18 10 -14 16 3 7 -2 11 -14 11
-11 0 -27 7 -35 16 -14 14 -30 20 -58 23 -3 1 -1 12 5 26 11 22 14 23 34 10
25 -17 38 -6 28 24 -4 14 1 20 25 24 42 9 34 26 -30 66 -68 43 -65 40 -57 47
4 4 18 -1 31 -10 50 -32 63 -13 19 29 -15 14 -23 25 -16 25 6 0 14 9 18 20 3
11 12 19 18 17 7 -1 11 7 10 18 -2 25 15 35 42 25 12 -5 28 -4 36 1 12 8 11
12 -5 24 -11 8 -28 15 -38 15 -21 0 -78 39 -78 53 0 5 7 6 16 3 11 -4 14 -1
12 12 -3 12 -12 16 -35 15 -17 -2 -47 4 -67 12 -28 12 -36 22 -42 50 -8 45 2
56 25 27 15 -20 19 -21 29 -9 7 7 9 16 6 20 -3 3 4 8 15 12 25 8 27 18 6 35
-8 7 -15 21 -15 31 0 10 -9 23 -19 29 -11 5 -31 35 -46 65 -14 30 -28 55 -31
55 -3 0 -11 -15 -19 -32z m76 -655 c0 -5 3 -20 5 -35 3 -16 0 -28 -5 -28 -13
0 -19 11 -25 43 -3 19 0 27 10 27 8 0 14 -3 15 -7z m-58 -85 c7 -21 -10 -56
-32 -63 -11 -3 -30 -18 -41 -32 -11 -14 -20 -21 -21 -14 -1 6 -2 19 -2 30 -1
17 66 91 83 91 4 0 10 -6 13 -12z"/>
</g>
</svg>
